<?xml version="1.0" standalone="no"?><!DOCTYPE svg PUBLIC "-//W3C//DTD SVG 1.1//EN" "http://www.w3.org/Graphics/SVG/1.1/DTD/svg11.dtd"><svg t="1598586289896" class="icon" viewBox="0 0 1024 1024" version="1.1" xmlns="http://www.w3.org/2000/svg" p-id="4160" xmlns:xlink="http://www.w3.org/1999/xlink" width="128" height="128"><defs><style type="text/css"></style></defs><path d="M565 928.5H458.6c-22.7 0-41.2-17.7-42.3-40.4-0.8-18.4-1.6-36.4-2.4-53.8-20.8-6.8-40.9-15.7-59.9-26.7l-39.9 37.5c-16.8 15.7-42.6 15.3-58.8-0.9L180.1 769c-16-16-16.6-41.7-1.3-58.4 15-16.5 29.8-32.7 44.1-48.2-7.6-16.9-13.6-34.4-18.1-52.3l-67.8-2.2c-23-0.8-41-19.4-41-42.4V459.1c0-22.7 17.7-41.2 40.4-42.3 28.3-1.3 55.7-2.5 81.7-3.6 5.2-13 11.3-25.7 18.3-37.9l-57-60.7c-15.7-16.8-15.3-42.6 0.9-58.8l75.2-75.2c16-16 41.7-16.6 58.4-1.3 24 21.9 47 43 68.6 62.9 9.6-4.3 19.5-8.2 29.4-11.5 1.3-29.5 2.7-61 4.3-93.9 1.1-22.6 19.6-40.3 42.3-40.3H565c22.9 0 41.5 18 42.3 40.9l3.1 92.8c10.4 3.4 20.7 7.4 30.8 11.9 21.6-19.9 44.8-41 68.9-62.9 16.7-15.2 42.4-14.6 58.4 1.4l75.3 75.3c16.2 16.2 16.7 42.1 1 58.8l-56.9 60.9c6.9 12.1 12.9 24.7 18.1 37.5 26 1.1 53.5 2.4 81.9 3.8 22.6 1.1 40.3 19.6 40.3 42.3v106.5c0 22.9-18 41.5-40.9 42.3l-67.9 2.3c-4.5 17.8-10.5 35.3-18 52 14.2 15.5 29 31.7 44.1 48.4 15.2 16.7 14.6 42.4-1.4 58.4l-75.3 75.3c-16.2 16.2-42.1 16.7-58.8 1l-40-37.5c-19.3 11.1-39.7 20.2-60.8 27l-1.7 52.9c-0.9 22.7-19.5 40.7-42.5 40.7z m-214.9-161l10.5 6.6c22.8 14.4 47.5 25.4 73.3 32.8l11.1 3.2 0.5 11.5c0.9 20.8 1.9 42.7 2.9 65 0.3 5.5 4.8 9.8 10.3 9.8H565c5.6 0 10.1-4.4 10.3-10l2.4-76.1 11.3-3.2c26.2-7.4 51.2-18.5 74.3-33.1l10.4-6.6 57.9 54.2c4.1 3.8 10.4 3.7 14.3-0.2l75.3-75.3c3.9-3.9 4-10.1 0.3-14.2-17.7-19.5-35-38.4-51.3-56.2l-7.4-8 4.8-9.8c10.4-21.2 18.1-43.7 23-66.8l2.6-12.3 92.7-3.1c5.6-0.2 10-4.7 10-10.3V459.1c0-5.5-4.3-10-9.8-10.3-32.2-1.5-63.2-3-92.2-4.2l-10.7-0.5-3.7-10c-6.6-18.2-15.2-35.8-25.4-52.3l-6.4-10.4 73.5-78.6c3.8-4.1 3.7-10.4-0.2-14.3l-75.3-75.3c-3.9-3.9-10.1-4-14.2-0.3-27 24.5-52.8 48.1-76.6 70l-8.1 7.4-9.8-4.8c-15-7.3-30.7-13.4-46.7-18l-11.2-3.2-3.8-115.8c-0.2-5.6-4.7-10-10.3-10H458.6c-5.5 0-10 4.3-10.3 9.8-1.8 37-3.4 72.3-4.7 104.9l-0.5 11.5-11 3.2c-15.5 4.5-30.8 10.5-45.3 17.6l-9.8 4.8-8.1-7.4c-23.8-21.9-49.5-45.5-76.4-70.1-4.1-3.7-10.3-3.6-14.2 0.3L203 278.5c-4 4-4.1 10.3-0.2 14.3l73.6 78.5-6.5 10.4c-10.3 16.6-18.9 34.3-25.5 52.6l-3.7 10.1-10.7 0.4c-29 1.2-60 2.6-92.1 4-5.5 0.3-9.8 4.8-9.8 10.3v106.4c0 5.6 4.4 10.1 10 10.3l92.7 3 2.6 12.3c4.9 23.2 12.6 45.8 23.1 67.1l4.8 9.8-7.4 8.1c-16.5 17.9-33.7 36.8-51.3 56-3.7 4.1-3.6 10.3 0.3 14.2l75.2 75.2c4 4 10.3 4.1 14.3 0.2l57.7-54.2z" p-id="4161"></path><path d="M518.5 666.2c-77.3 0-140.3-63.1-140.3-140.6S441.1 385 518.5 385c77.3 0 140.3 63.1 140.3 140.6s-62.9 140.6-140.3 140.6z m0-249.2c-59.7 0-108.3 48.7-108.3 108.6 0 59.9 48.6 108.6 108.3 108.6 59.7 0 108.3-48.7 108.3-108.6 0-59.9-48.6-108.6-108.3-108.6z" p-id="4162"></path></svg>