<?xml version="1.0" encoding="UTF-8"?>
<svg width="48px" height="48px" viewBox="0 0 48 48" version="1.1" xmlns="http://www.w3.org/2000/svg" xmlns:xlink="http://www.w3.org/1999/xlink">
    <!-- Generator: Sketch 54.1 (76490) - https://sketchapp.com -->
    <title>编组 7</title>
    <desc>Created with Sketch.</desc>
    <defs>
        <rect id="path-1" x="0" y="0" width="48" height="48" rx="8"></rect>
        <path d="M40.2665926,21.4029146 C27.5999259,21.4029146 18.5999259,24.7362479 13.2665926,31.4029146 C5.26659262,41.4029146 7.26659262,56.4029146 -10.7334074,54.4029146" id="path-3"></path>
        <filter x="-13.9%" y="-21.1%" width="127.7%" height="142.2%" filterUnits="objectBoundingBox" id="filter-4">
            <feMorphology radius="1" operator="dilate" in="SourceAlpha" result="shadowSpreadOuter1"></feMorphology>
            <feOffset dx="0" dy="0" in="shadowSpreadOuter1" result="shadowOffsetOuter1"></feOffset>
            <feMorphology radius="1" operator="erode" in="SourceAlpha" result="shadowInner"></feMorphology>
            <feOffset dx="0" dy="0" in="shadowInner" result="shadowInner"></feOffset>
            <feComposite in="shadowOffsetOuter1" in2="shadowInner" operator="out" result="shadowOffsetOuter1"></feComposite>
            <feGaussianBlur stdDeviation="2" in="shadowOffsetOuter1" result="shadowBlurOuter1"></feGaussianBlur>
            <feColorMatrix values="0 0 0 0 0   0 0 0 0 0   0 0 0 0 0  0 0 0 0.12 0" type="matrix" in="shadowBlurOuter1"></feColorMatrix>
        </filter>
    </defs>
    <g id="页面1" stroke="none" stroke-width="1" fill="none" fill-rule="evenodd">
        <g id="组织发现---首页" transform="translate(-36.000000, -525.000000)">
            <g id="top复制" transform="translate(-1.000000, 0.000000)">
                <g id="编组-7" transform="translate(37.000000, 525.000000)">
                    <g id="路径复制-4">
                        <mask id="mask-2" fill="white">
                            <use xlink:href="#path-1"></use>
                        </mask>
                        <use id="蒙版" fill="#A7B7CC" xlink:href="#path-1"></use>
                        <path d="M34.6920941,1.49939546 C22.0254275,1.49939546 13.0254275,4.83272879 7.69209413,11.4993955 C-0.307905873,21.4993955 1.69209413,36.4993955 -16.3079059,34.4993955" id="路径-20" stroke="#FFFFFF" stroke-width="2" opacity="0.6" mask="url(#mask-2)" transform="translate(9.192094, 18.090008) rotate(-26.000000) translate(-9.192094, -18.090008) "></path>
                        <g id="路径-20复制-2" mask="url(#mask-2)" transform="translate(14.766593, 37.993527) rotate(-100.000000) translate(-14.766593, -37.993527) ">
                            <use fill="black" fill-opacity="1" filter="url(#filter-4)" xlink:href="#path-3"></use>
                            <use stroke="#FFFFFF" stroke-width="2" xlink:href="#path-3"></use>
                        </g>
                        <path d="M55.2665926,-13.5970854 C42.5999259,-13.5970854 33.5999259,-10.2637521 28.2665926,-3.5970854 C20.2665926,6.4029146 22.2665926,21.4029146 4.26659262,19.4029146" id="路径-20复制-3" stroke="#FFFFFF" stroke-width="2" opacity="0.115187872" mask="url(#mask-2)" transform="translate(29.766593, 2.993527) rotate(-100.000000) translate(-29.766593, -2.993527) "></path>
                        <path d="M51,30 C36.3333333,30.6666667 27,34 23,40 C17,49 18,65 0,63" id="路径-20复制" stroke="#FFFFFF" stroke-width="2" opacity="0.6" mask="url(#mask-2)"></path>
                    </g>
                    <g id="编组-6" transform="translate(8.000000, 8.000000)">
                        <path d="M26.4094821,16.6806745 L23.8419249,22.8793058 L24.7903755,23.8277565 L25.8697799,23.8277565 C26.9975583,23.8277565 27.9118033,24.7420015 27.9118033,25.8697799 C27.9118033,26.9975583 26.9975583,27.9118033 25.8697799,27.9118033 C24.7420015,27.9118033 23.8277565,26.9975583 23.8277565,25.8697799 L23.8277565,24.7903755 L22.8793058,23.8419249 L16.6806745,26.4094821 L16.6806745,27.7507938 L17.4439286,28.514048 C18.2413884,29.3115077 18.2413884,30.6044454 17.4439286,31.4019052 C16.6464689,32.1993649 15.3535311,32.1993649 14.5560714,31.4019052 C13.7586116,30.6044454 13.7586116,29.3115077 14.5560714,28.514048 L15.3193255,27.7507938 L15.3193255,26.1275375 L9.32005912,23.64256 L8.17224354,24.7903755 L8.17224354,25.8697799 C8.17224354,26.9975583 7.25799851,27.9118033 6.13022011,27.9118033 C5.00244172,27.9118033 4.08819669,26.9975583 4.08819669,25.8697799 C4.08819669,24.7420015 5.00244172,23.8277565 6.13022011,23.8277565 L7.20962446,23.8277565 L8.63938464,22.3979963 L6.27119241,16.6806745 L4.24920617,16.6806745 L3.48595204,17.4439286 C2.68849228,18.2413884 1.39555457,18.2413884 0.598094814,17.4439286 C-0.199364938,16.6464689 -0.199364938,15.3535311 0.598094814,14.5560714 C1.39555457,13.7586116 2.68849228,13.7586116 3.48595204,14.5560714 L4.24920617,15.3193255 L6.55313701,15.3193255 L8.83874958,9.80136866 L7.20962446,8.17224354 L6.13022011,8.17224354 C5.00244172,8.17224354 4.08819669,7.25799851 4.08819669,6.13022011 C4.08819669,5.00244172 5.00244172,4.08819669 6.13022011,4.08819669 C7.25799851,4.08819669 8.17224354,5.00244172 8.17224354,6.13022011 L8.17224354,7.20962446 L9.80136866,8.83874958 L15.3193255,6.55313701 L15.3193255,4.24920617 L14.5560714,3.48595204 C13.7586116,2.68849228 13.7586116,1.39555457 14.5560714,0.598094814 C15.3535311,-0.199364938 16.6464689,-0.199364938 17.4439286,0.598094814 C18.2413884,1.39555457 18.2413884,2.68849228 17.4439286,3.48595204 L16.6806745,4.24920617 L16.6806745,6.27119241 L22.3979963,8.63938464 L23.8277565,7.20962446 L23.8277565,6.13022011 C23.8277565,5.00244172 24.7420015,4.08819669 25.8697799,4.08819669 C26.9975583,4.08819669 27.9118033,5.00244172 27.9118033,6.13022011 C27.9118033,7.25799851 26.9975583,8.17224354 25.8697799,8.17224354 L24.7903755,8.17224354 L23.64256,9.32005912 L26.1275375,15.3193255 L27.7507938,15.3193255 L28.514048,14.5560714 C29.3115077,13.7586116 30.6044454,13.7586116 31.4019052,14.5560714 C32.1993649,15.3535311 32.1993649,16.6464689 31.4019052,17.4439286 C30.6044454,18.2413884 29.3115077,18.2413884 28.514048,17.4439286 L27.7507938,16.6806745 L26.4094821,16.6806745 Z" id="路径复制-3" fill="#4751F1"></path>
                        <circle id="椭圆形" fill="#FFFFFF" cx="16" cy="16" r="5"></circle>
                        <path d="M27.2151491,25 C28.0435762,25 28.7151491,25.4477153 28.7151491,26 C28.7151491,26.5522847 28.0435762,27 27.2151491,27 C27.1898946,27 27.1633264,26.9991423 27.1354445,26.997427 L27.1354455,26.997411 C26.6788299,26.969319 26.2263842,27.0986159 25.8535616,27.3637391 C25.2570779,27.787913 24.7109404,28 24.2151491,28 C22.8344372,28 21.7151491,27.1045695 21.7151491,26 C21.7151491,24.8954305 22.8344372,24 24.2151491,24 C24.7441725,24 25.2835984,24.2018344 25.8334267,24.6055033 L25.833432,24.6054961 C26.1495058,24.8375488 26.5268196,24.9715717 26.9184541,24.9908988 C27.0414012,24.9969663 27.1402996,25 27.2151491,25 Z" id="路径" fill="#FFFFFF" transform="translate(25.215149, 26.000000) rotate(-180.000000) translate(-25.215149, -26.000000) "></path>
                        <rect id="矩形" fill="#FFC15B" x="13" y="20" width="6" height="2"></rect>
                        <path d="M13,7 C13,7 13,7 13,7 C13,8.1045695 12.1045695,9 11,9 C10.6976221,9 10.3521542,8.87252594 9.9635963,8.61757783 L9.96361985,8.61754194 C9.59580699,8.37620547 9.11347786,8.40357433 8.77532643,8.68496944 C7.72181496,9.56165648 6.79670615,10 6,10 C3.790861,10 2,8.209139 2,6 C2,3.790861 3.790861,2 6,2 C7.21982452,2 8.43856532,2.94841479 9.65622241,4.84524436 L9.65620521,4.8452554 C9.82995058,5.1159107 10.1606473,5.24056994 10.4698226,5.15195609 L10.5264064,5.13577751 C11.5559881,4.84068535 12.6298484,5.43610673 12.9249406,6.46568838 C12.9747357,6.63942455 13,6.81926867 13,7 Z" id="路径" fill="#FFFFFF"></path>
                        <circle id="椭圆形复制-5" fill="#2B2F6E" cx="16" cy="16" r="2"></circle>
                    </g>
                </g>
            </g>
        </g>
    </g>
</svg>