<?xml version="1.0" encoding="UTF-8"?>
<svg width="16px" height="16px" viewBox="0 0 16 16" version="1.1" xmlns="http://www.w3.org/2000/svg" xmlns:xlink="http://www.w3.org/1999/xlink">
    <!-- Generator: Sketch 54.1 (76490) - https://sketchapp.com -->
    <title>编组 11</title>
    <desc>Created with Sketch.</desc>
    <g id="页面1" stroke="none" stroke-width="1" fill="none" fill-rule="evenodd">
        <g id="组织发现---首页" transform="translate(-18.000000, -13.000000)" fill="#FFFFFF">
            <g id="编组-3" transform="translate(18.283035, 10.000000)">
                <g id="编组-11" transform="translate(0.000000, 2.908799)">
                    <g id="编组-2" transform="translate(0.000000, 0.260068)">
                        <path d="M7,0.0909090909 L10.5456949,0.0264419108 C11.3344147,0.0121015506 11.9854236,0.639860127 11.999764,1.42857994 C11.9999213,1.43723421 12,1.44588975 12,1.45454545 L12,1.45454545 C12,2.26211082 11.3531268,2.92085224 10.5456949,2.93553282 L7,3 L7,0.0909090909 Z" id="矩形" opacity="0.164876302"></path>
                        <path d="M3,5.55322586 L3,5.55322586 C3,4.13210434 4.15204661,2.98005773 5.57316812,2.98005773 C6.41241511,2.98005773 7.2516621,2.98005773 8.09090909,2.98005773 C8.09090909,2.98005773 8.09090909,2.98005773 8.09090909,2.98005773 L8.09090909,2.98005773 C10.3000226,2.98005773 12.0908629,4.77089806 12.0908629,6.98001157 L12.0909091,15.0354849 L15,15.0354849 L14.9999753,6.90906912 C14.9999753,3.09329724 11.906681,2.95776035e-06 8.09090909,2.95720421e-06 C8.09090909,2.95720421e-06 8.09090909,2.95720421e-06 8.09090909,2.95720421e-06 C7.26349082,2.95720421e-06 6.43607255,2.86229353e-06 5.60865428,2.67247217e-06 L5.60865428,-2.87864843e-10 C2.56128846,-6.99395254e-07 0.0909097905,2.47037683 0.0909090914,5.51774266 C0.0909090914,5.51774308 0.0909090914,5.5177435 0.0909090914,5.51774392 L0.0909090914,5.51774392 L0.0909090914,5.51774392 C0.0909090914,8.56510811 2.56128587,11.0354849 5.60865006,11.0354849 L8.09090909,11.0354849 L8.09090909,8.12639398 L5.57316812,8.12639398 C4.15204661,8.12639398 3,6.97434737 3,5.55322586 Z" id="形状结合" fill-rule="nonzero" transform="translate(7.545455, 7.517742) rotate(-180.000000) translate(-7.545455, -7.517742) "></path>
                        <circle id="椭圆形" cx="10.5454545" cy="1.45454545" r="1.45454545"></circle>
                    </g>
                </g>
            </g>
        </g>
    </g>
</svg>