<?xml version="1.0" encoding="UTF-8"?>
<svg width="49px" height="49px" viewBox="0 0 49 49" version="1.1" xmlns="http://www.w3.org/2000/svg" xmlns:xlink="http://www.w3.org/1999/xlink">
    <!-- Generator: Sketch 54.1 (76490) - https://sketchapp.com -->
    <title>编组 8</title>
    <desc>Created with Sketch.</desc>
    <defs>
        <rect id="path-1" x="0" y="0" width="48" height="48" rx="8"></rect>
        <path d="M61.5744985,47 C48.9078318,47 39.9078318,50.3333333 34.5744985,57 C26.5744985,67 28.5744985,82 10.5744985,80" id="path-3"></path>
        <filter x="-13.9%" y="-21.1%" width="127.7%" height="142.2%" filterUnits="objectBoundingBox" id="filter-4">
            <feMorphology radius="1" operator="dilate" in="SourceAlpha" result="shadowSpreadOuter1"></feMorphology>
            <feOffset dx="0" dy="0" in="shadowSpreadOuter1" result="shadowOffsetOuter1"></feOffset>
            <feMorphology radius="1" operator="erode" in="SourceAlpha" result="shadowInner"></feMorphology>
            <feOffset dx="0" dy="0" in="shadowInner" result="shadowInner"></feOffset>
            <feComposite in="shadowOffsetOuter1" in2="shadowInner" operator="out" result="shadowOffsetOuter1"></feComposite>
            <feGaussianBlur stdDeviation="2" in="shadowOffsetOuter1" result="shadowBlurOuter1"></feGaussianBlur>
            <feColorMatrix values="0 0 0 0 0   0 0 0 0 0   0 0 0 0 0  0 0 0 0.2 0" type="matrix" in="shadowBlurOuter1"></feColorMatrix>
        </filter>
    </defs>
    <g id="页面1" stroke="none" stroke-width="1" fill="none" fill-rule="evenodd">
        <g id="组织发现---首页" transform="translate(-36.000000, -88.000000)">
            <g id="top复制" transform="translate(-1.000000, 0.000000)">
                <g id="编组-8" transform="translate(37.046269, 88.982745)">
                    <g id="编组-17">
                        <mask id="mask-2" fill="white">
                            <use xlink:href="#path-1"></use>
                        </mask>
                        <use id="蒙版" fill="#AFBED1" xlink:href="#path-1"></use>
                        <g mask="url(#mask-2)">
                            <g transform="translate(34.500000, 28.000000) rotate(-236.000000) translate(-34.500000, -28.000000) translate(-2.000000, -18.000000)">
                                <path d="M56,27.0964809 C43.3333333,27.0964809 34.3333333,30.4298142 29,37.0964809 C21,47.0964809 23,62.0964809 5,60.0964809" id="路径-20" stroke="#FFFFFF" stroke-width="2" opacity="0.6" transform="translate(30.500000, 43.687094) rotate(-26.000000) translate(-30.500000, -43.687094) "></path>
                                <g id="路径-20复制-2" stroke="none" transform="translate(36.074498, 63.590613) rotate(-100.000000) translate(-36.074498, -63.590613) ">
                                    <use fill="black" fill-opacity="1" filter="url(#filter-4)" xlink:href="#path-3"></use>
                                    <use stroke="#FFFFFF" stroke-width="2" xlink:href="#path-3"></use>
                                </g>
                                <path d="M76.5744985,12 C63.9078318,12 54.9078318,15.3333333 49.5744985,22 C41.5744985,32 43.5744985,47 25.5744985,45" id="路径-20复制-3" stroke="#FFFFFF" stroke-width="2" opacity="0.115187872" transform="translate(51.074498, 28.590613) rotate(-100.000000) translate(-51.074498, -28.590613) "></path>
                                <path d="M72.3079059,55.5970854 C57.6412392,56.2637521 48.3079059,59.5970854 44.3079059,65.5970854 C38.3079059,74.5970854 39.3079059,90.5970854 21.3079059,88.5970854" id="路径-20复制" stroke="#FFFFFF" stroke-width="2" opacity="0.6"></path>
                            </g>
                        </g>
                    </g>
                    <g id="font15的副本" transform="translate(9.953731, 8.017255)">
                        <path d="M22,4 L2,4 C0.8954305,4 -1.3527075e-16,4.8954305 0,6 L0,32 L24,32 L24,6 C24,4.8954305 23.1045695,4 22,4 Z" id="路径" fill="#2B2F6E" fill-rule="nonzero"></path>
                        <path d="M22.7283134,0 L9.27168661,-1.77635684e-15 C8.77507124,-1.68513008e-15 8.29621805,0.184762298 7.92830883,0.518333327 L4.65662222,3.48466252 C4.23848439,3.86377415 4,4.40191369 4,4.9663292 L4,30 L28,30 L28,4.9663292 C28,4.40191369 27.7615156,3.86377415 27.3433778,3.48466252 L24.0716912,0.518333327 C23.7037819,0.184762298 23.2249288,2.12921929e-15 22.7283134,2.22044605e-15 Z" id="路径" fill="#4751F1" fill-rule="nonzero"></path>
                        <polygon id="Rectangle-16" fill="#FFC15B" points="9 7 23 7 23 9 9 9"></polygon>
                        <g id="编组-22" transform="translate(9.000000, 12.000000)" fill="#FFFFFF">
                            <path d="M1,0 L3,0 C3.55228475,-1.01453063e-16 4,0.44771525 4,1 L4,3 C4,3.55228475 3.55228475,4 3,4 L1,4 C0.44771525,4 6.76353751e-17,3.55228475 0,3 L0,1 C-6.76353751e-17,0.44771525 0.44771525,1.01453063e-16 1,0 Z" id="Rectangle-16复制" opacity="0.2"></path>
                            <path d="M11,0 L13,0 C13.5522847,-1.01453063e-16 14,0.44771525 14,1 L14,3 C14,3.55228475 13.5522847,4 13,4 L11,4 C10.4477153,4 10,3.55228475 10,3 L10,1 C10,0.44771525 10.4477153,1.01453063e-16 11,0 Z" id="Rectangle-16复制-3" opacity="0.2"></path>
                            <path d="M1,5 L3,5 C3.55228475,5 4,5.44771525 4,6 L4,8 C4,8.55228475 3.55228475,9 3,9 L1,9 C0.44771525,9 6.76353751e-17,8.55228475 0,8 L0,6 C-6.76353751e-17,5.44771525 0.44771525,5 1,5 Z" id="Rectangle-16复制-4" opacity="0.2"></path>
                            <path d="M11,5 L13,5 C13.5522847,5 14,5.44771525 14,6 L14,8 C14,8.55228475 13.5522847,9 13,9 L11,9 C10.4477153,9 10,8.55228475 10,8 L10,6 C10,5.44771525 10.4477153,5 11,5 Z" id="Rectangle-16复制-7" opacity="0.2"></path>
                            <path d="M1,10 L3,10 C3.55228475,10 4,10.4477153 4,11 L4,13 C4,13.5522847 3.55228475,14 3,14 L1,14 C0.44771525,14 6.76353751e-17,13.5522847 0,13 L0,11 C-6.76353751e-17,10.4477153 0.44771525,10 1,10 Z" id="Rectangle-16复制-6" opacity="0.2"></path>
                            <path d="M11,10 L13,10 C13.5522847,10 14,10.4477153 14,11 L14,13 C14,13.5522847 13.5522847,14 13,14 L11,14 C10.4477153,14 10,13.5522847 10,13 L10,11 C10,10.4477153 10.4477153,10 11,10 Z" id="Rectangle-16复制-9" opacity="0.2"></path>
                            <path d="M6,0 L8,0 C8.55228475,-1.01453063e-16 9,0.44771525 9,1 L9,3 C9,3.55228475 8.55228475,4 8,4 L6,4 C5.44771525,4 5,3.55228475 5,3 L5,1 C5,0.44771525 5.44771525,1.01453063e-16 6,0 Z" id="Rectangle-16复制-2"></path>
                            <path d="M6,5 L8,5 C8.55228475,5 9,5.44771525 9,6 L9,8 C9,8.55228475 8.55228475,9 8,9 L6,9 C5.44771525,9 5,8.55228475 5,8 L5,6 C5,5.44771525 5.44771525,5 6,5 Z" id="Rectangle-16复制-5"></path>
                            <path d="M6,10 L8,10 C8.55228475,10 9,10.4477153 9,11 L9,13 C9,13.5522847 8.55228475,14 8,14 L6,14 C5.44771525,14 5,13.5522847 5,13 L5,11 C5,10.4477153 5.44771525,10 6,10 Z" id="Rectangle-16复制-8"></path>
                        </g>
                    </g>
                </g>
            </g>
        </g>
    </g>
</svg>