<?xml version="1.0" encoding="UTF-8"?>
<svg width="48px" height="48px" viewBox="0 0 48 48" version="1.1" xmlns="http://www.w3.org/2000/svg" xmlns:xlink="http://www.w3.org/1999/xlink">
    <!-- Generator: Sketch 54.1 (76490) - https://sketchapp.com -->
    <title>编组 20</title>
    <desc>Created with Sketch.</desc>
    <defs>
        <rect id="path-1" x="0" y="0" width="48" height="48" rx="8"></rect>
        <path d="M61.5744985,47 C48.9078318,47 39.9078318,50.3333333 34.5744985,57 C26.5744985,67 28.5744985,82 10.5744985,80" id="path-3"></path>
        <filter x="-13.9%" y="-21.1%" width="127.7%" height="142.2%" filterUnits="objectBoundingBox" id="filter-4">
            <feMorphology radius="1" operator="dilate" in="SourceAlpha" result="shadowSpreadOuter1"></feMorphology>
            <feOffset dx="0" dy="0" in="shadowSpreadOuter1" result="shadowOffsetOuter1"></feOffset>
            <feMorphology radius="1" operator="erode" in="SourceAlpha" result="shadowInner"></feMorphology>
            <feOffset dx="0" dy="0" in="shadowInner" result="shadowInner"></feOffset>
            <feComposite in="shadowOffsetOuter1" in2="shadowInner" operator="out" result="shadowOffsetOuter1"></feComposite>
            <feGaussianBlur stdDeviation="2" in="shadowOffsetOuter1" result="shadowBlurOuter1"></feGaussianBlur>
            <feColorMatrix values="0 0 0 0 0   0 0 0 0 0   0 0 0 0 0  0 0 0 0.2 0" type="matrix" in="shadowBlurOuter1"></feColorMatrix>
        </filter>
    </defs>
    <g id="页面1" stroke="none" stroke-width="1" fill="none" fill-rule="evenodd">
        <g id="事件中心---全部---展开" transform="translate(-36.000000, -198.000000)">
            <g id="top复制" transform="translate(-1.000000, 0.000000)">
                <g id="编组-20" transform="translate(37.000000, 198.000000)">
                    <g id="编组-17" opacity="0.158761161">
                        <mask id="mask-2" fill="white">
                            <use xlink:href="#path-1"></use>
                        </mask>
                        <use id="蒙版" fill="#A7B7CC" xlink:href="#path-1"></use>
                        <g mask="url(#mask-2)">
                            <g transform="translate(30.370271, 31.006141) rotate(-175.000000) translate(-30.370271, -31.006141) translate(-6.129729, -14.993859)">
                                <path d="M56,27.0964809 C43.3333333,27.0964809 34.3333333,30.4298142 29,37.0964809 C21,47.0964809 23,62.0964809 5,60.0964809" id="路径-20" stroke="#FFFFFF" stroke-width="2" opacity="0.6" transform="translate(30.500000, 43.687094) rotate(-26.000000) translate(-30.500000, -43.687094) "></path>
                                <g id="路径-20复制-2" stroke="none" transform="translate(36.074498, 63.590613) rotate(-100.000000) translate(-36.074498, -63.590613) ">
                                    <use fill="black" fill-opacity="1" filter="url(#filter-4)" xlink:href="#path-3"></use>
                                    <use stroke="#FFFFFF" stroke-width="2" xlink:href="#path-3"></use>
                                </g>
                                <path d="M76.5744985,12 C63.9078318,12 54.9078318,15.3333333 49.5744985,22 C41.5744985,32 43.5744985,47 25.5744985,45" id="路径-20复制-3" stroke="#FFFFFF" stroke-width="2" opacity="0.115187872" transform="translate(51.074498, 28.590613) rotate(-100.000000) translate(-51.074498, -28.590613) "></path>
                                <path d="M72.3079059,55.5970854 C57.6412392,56.2637521 48.3079059,59.5970854 44.3079059,65.5970854 C38.3079059,74.5970854 39.3079059,90.5970854 21.3079059,88.5970854" id="路径-20复制" stroke="#FFFFFF" stroke-width="2" opacity="0.6"></path>
                            </g>
                        </g>
                    </g>
                    <g id="编组-18" transform="translate(10.000000, 12.000000)">
                        <path d="M4,2 L26,2 L26,22 L2,22 L2,4 C2,2.8954305 2.8954305,2 4,2 Z" id="矩形" fill="#2B2F6E"></path>
                        <path d="M2,5 L11.2710607,5 C11.7418722,5 12.197591,4.83390431 12.5579865,4.53095456 L17.3901206,0.469045443 C17.7505161,0.166095691 18.2062349,2.18348428e-13 18.6770464,2.07389661e-13 L26,0 C27.1045695,-2.57103307e-14 28,0.8954305 28,2 L28,23 C28,24.1045695 27.1045695,25 26,25 L2,25 C0.8954305,25 1.3527075e-16,24.1045695 0,23 L0,7 C-1.3527075e-16,5.8954305 0.8954305,5 2,5 Z" id="矩形" fill="#4751F1"></path>
                        <path d="M13.8445943,10.5441023 L17.1450798,16.4849762 C17.413293,16.96776 17.2393492,17.5765633 16.7565655,17.8447764 C16.6080075,17.9273087 16.4408668,17.9706192 16.2709225,17.9706192 L9.66995145,17.9706192 C9.1176667,17.9706192 8.66995145,17.5229039 8.66995145,16.9706192 C8.66995145,16.8006749 8.71326195,16.6335342 8.79579417,16.4849762 L12.0962797,10.5441023 C12.3644929,10.0613185 12.9732962,9.88737473 13.4560799,10.1555879 C13.61932,10.2462768 13.7539053,10.3808622 13.8445943,10.5441023 Z" id="三角形复制-2" fill="#FFFFFF" opacity="0.2" transform="translate(12.970528, 14.000091) rotate(-270.000000) translate(-12.970528, -14.000091) "></path>
                        <path d="M19.6666667,3 L24.3333333,3 C24.7015232,3 25,3.29847683 25,3.66666667 L25,3.66666667 C25,4.0348565 24.7015232,4.33333333 24.3333333,4.33333333 L19.6666667,4.33333333 C19.2984768,4.33333333 19,4.0348565 19,3.66666667 L19,3.66666667 C19,3.29847683 19.2984768,3 19.6666667,3 Z" id="Rectangle-16" fill="#FFC15B"></path>
                        <path d="M16.8445943,10.5441023 L20.1450798,16.4849762 C20.413293,16.96776 20.2393492,17.5765633 19.7565655,17.8447764 C19.6080075,17.9273087 19.4408668,17.9706192 19.2709225,17.9706192 L12.6699514,17.9706192 C12.1176667,17.9706192 11.6699514,17.5229039 11.6699514,16.9706192 C11.6699514,16.8006749 11.7132619,16.6335342 11.7957942,16.4849762 L15.0962797,10.5441023 C15.3644929,10.0613185 15.9732962,9.88737473 16.4560799,10.1555879 C16.61932,10.2462768 16.7539053,10.3808622 16.8445943,10.5441023 Z" id="三角形复制-3" fill="#FFFFFF" transform="translate(15.970528, 14.000091) rotate(-270.000000) translate(-15.970528, -14.000091) "></path>
                    </g>
                </g>
            </g>
        </g>
    </g>
</svg>