<?xml version="1.0" standalone="no"?><!DOCTYPE svg PUBLIC "-//W3C//DTD SVG 1.1//EN" "http://www.w3.org/Graphics/SVG/1.1/DTD/svg11.dtd"><svg t="1547015534527" class="icon" style="" viewBox="0 0 1024 1024" version="1.1" xmlns="http://www.w3.org/2000/svg" p-id="1772" xmlns:xlink="http://www.w3.org/1999/xlink" width="100%" height="100%"><defs><style type="text/css"></style></defs><path d="M377 911.375c0 16.875 25.3125 30.9375 67.5 39.375s92.8125 8.4375 135 0 67.5-22.5 67.5-39.375c0-25.3125-61.875-45-135-45s-135 19.6875-135 45z" fill="#115D7F" p-id="1773"></path><path d="M512 838.25l84.375-84.375h2.8125c154.6875-39.375 264.375-180 264.375-340.3125C863.5625 219.5 706.0625 62 512 62S160.4375 216.6875 160.4375 413.5625c0 160.3125 109.6875 300.9375 264.375 340.3125h2.8125l84.375 84.375z" fill="#148CFF" p-id="1774"></path><path d="M512 163.25c137.8125 0 250.3125 112.5 250.3125 250.3125s-112.5 250.3125-250.3125 250.3125-250.3125-112.5-250.3125-250.3125 112.5-250.3125 250.3125-250.3125z" fill="#0A1929" p-id="1775"></path><path d="M436.0625 464.1875H402.3125v-42.1875l-30.9375-5.625v132.1875l30.9375-8.4375v-45h50.625l28.125-36.5625-36.5625-19.6875-8.4375 25.3125z m165.9375 8.4375l73.125-47.8125-230.625-151.875h-28.125L379.8125 332v19.6875l202.5 123.75 19.6875-2.8125z m-28.125 8.4375l-174.375-112.5-19.6875 19.6875L582.3125 512h19.6875l8.4375-8.4375 8.4375-28.125-28.125 19.6875c-8.4375-8.4375-16.875-14.0625-16.875-14.0625z" fill="#347DFF" p-id="1776"></path></svg>
