<?xml version="1.0" standalone="no"?><!DOCTYPE svg PUBLIC "-//W3C//DTD SVG 1.1//EN" "http://www.w3.org/Graphics/SVG/1.1/DTD/svg11.dtd"><svg t="1547015547139" class="icon" style="" viewBox="0 0 1024 1024" version="1.1" xmlns="http://www.w3.org/2000/svg" p-id="1899" xmlns:xlink="http://www.w3.org/1999/xlink" width="100%" height="100%"><defs><style type="text/css"></style></defs><path d="M381.09090869 899.27272724c0 16.36363653 24.54545479 29.99999971 65.4545461 38.18181797 40.90909131 8.18181826 90 8.18181826 130.90909042 0s65.45454521-21.81818145 65.4545461-38.18181797c0-24.54545479-60.00000029-43.63636377-130.90909131-43.63636376s-130.90909131 19.09090898-130.90909131 43.63636376z" fill="#115D7F" p-id="1900"></path><path d="M512 828.36363623l81.81818174-81.81818174h2.72727246c150.00000029-38.18181797 256.36363594-177.27272753 256.36363682-335.45454521C852.90909102 217.45454521 700.18181826 62 512 62S171.09090898 214.72727276 171.09090898 405.63636348c0 160.90909102 106.36363652 299.99999971 256.36363682 338.18181855h2.72727246l81.81818174 84.5454542z" fill="#148CFF" p-id="1901"></path><path d="M512 160.18181826c133.63636377 0 242.72727276 111.81818145 242.72727276 245.45454522s-109.09090898 245.45454521-242.72727276 245.45454521-242.72727276-111.81818145-242.72727276-245.45454521 109.09090898-245.45454521 242.72727276-245.45454522z" fill="#0C6BF0" p-id="1902"></path><path d="M438.36363652 457.45454551H405.63636348V416.5454542l-29.99999971-5.45454492v130.90909043l29.99999971-10.90909073v-46.36363622h49.09090957l27.27272724-38.18181797-35.4545455-19.09090899-8.18181826 29.9999997z m160.90909101 8.18181826l70.90909103-46.36363623-223.63636377-150.0000003h-27.27272726L383.81818203 326.5454542v19.09090986l196.36363653 122.72727217 19.09090897-2.72727246z m-27.27272724 10.90909073l-169.09090927-111.81818145-19.09090899 19.09090898 196.36363653 122.72727217h19.09090897l8.18181827-8.18181826 8.18181826-27.27272725-27.27272812 19.09090986c-8.18181826-10.90909073-16.36363653-13.63636406-16.36363565-13.63636406z" fill="#FFFFFF" p-id="1903"></path></svg>
