<?xml version="1.0" standalone="no"?><!DOCTYPE svg PUBLIC "-//W3C//DTD SVG 1.1//EN" "http://www.w3.org/Graphics/SVG/1.1/DTD/svg11.dtd"><svg t="1548397147779" class="icon" style="" viewBox="0 0 1024 1024" version="1.1" xmlns="http://www.w3.org/2000/svg" p-id="1462" xmlns:xlink="http://www.w3.org/1999/xlink" width="100%" height="100%"><defs><style type="text/css"></style></defs><path d="M0 0h1024v1024z" fill="#6000EB" p-id="1463"></path><path d="M642.816 510.293333a223.232 223.232 0 0 1-75.434667-51.2 232.96 232.96 0 0 1-65.365333-162.645333c0-63.573333 25.002667-121.088 65.365333-162.730667C608.170667 91.733333 666.709333 70.826667 725.333333 70.826667s117.162667 20.992 157.866667 62.976a232.96 232.96 0 0 1 65.450667 162.730666 232.96 232.96 0 0 1-65.450667 162.730667c-21.333333 21.930667-46.933333 39.509333-75.349333 51.2a217.685333 217.685333 0 0 1-165.034667 0zM725.333333 116.650667c-46.762667 0-93.610667 16.810667-126.122666 50.346666a184.661333 184.661333 0 0 0-43.093334 71.850667c-2.56 9.216 0.853333 13.568 9.728 13.056 29.354667-1.194667 92.586667-2.133333 105.557334-2.816a75.008 75.008 0 0 0-17.92 48.896 74.922667 74.922667 0 0 0 36.693333 64.597333 70.058667 70.058667 0 0 0 85.930667-12.202666 74.922667 74.922667 0 0 0 21.077333-52.394667 75.093333 75.093333 0 0 0-17.92-48.896c12.970667 0.682667 76.202667 1.706667 105.557333 2.816 8.96 0.512 12.202667-3.84 9.728-13.056a184.576 184.576 0 0 0-43.093333-71.850667c-32.512-33.536-79.36-50.346667-126.122667-50.346666z m39.253334 142.762666a57.770667 57.770667 0 0 0-78.506667 0 56.32 56.32 0 0 0 13.226667 89.258667 55.125333 55.125333 0 0 0 65.28-9.898667 56.32 56.32 0 0 0 0-79.36z m-2.218667 217.258667a176.469333 176.469333 0 0 0 89.088-49.834667c25.002667-25.770667 42.666667-59.221333 49.237333-96.512 2.474667-10.24-1.792-13.226667-9.216-13.056a208.896 208.896 0 0 0-44.117333 2.56c-50.773333 9.813333-68.949333 35.072-77.909333 93.184-3.328 21.162667-5.376 45.824-7.082667 63.658667z m-74.069333 0c-1.706667-17.834667-3.754667-42.496-7.082667-63.658667-8.96-58.026667-27.136-83.370667-77.909333-93.184a208.896 208.896 0 0 0-44.117334-2.56c-7.424-0.170667-11.690667 2.901333-9.216 13.056 6.570667 37.290667 24.234667 70.741333 49.237334 96.512 23.893333 24.746667 54.698667 42.410667 89.088 49.834667z" fill="#FFFFFF" p-id="1464"></path></svg>
