<?xml version="1.0" encoding="UTF-8"?>
<svg width="28px" height="28px" viewBox="0 0 28 28" version="1.1" xmlns="http://www.w3.org/2000/svg" xmlns:xlink="http://www.w3.org/1999/xlink">
    <!-- Generator: Sketch 52.4 (67378) - http://www.bohemiancoding.com/sketch -->
    <title>矩形 copy</title>
    <desc>Created with Sketch.</desc>
    <g id="Page-1" stroke="none" stroke-width="1" fill="none" fill-rule="evenodd">
        <rect id="矩形-copy" fill="#347DFF" x="0" y="0" width="28" height="28"></rect>
        <g id="展开-copy" transform="translate(6.000000, 6.000000)">
            <rect id="矩形" fill="#000000" opacity="0" x="0" y="0" width="16" height="16"></rect>
            <path d="M2.090625,1.796875 L13.909375,1.796875 C14.2359375,1.796875 14.5,1.94590498 14.5,2.13020833 L14.5,2.46354167 C14.5,2.64784502 14.2359375,2.796875 13.909375,2.796875 L2.090625,2.796875 C1.7640625,2.796875 1.5,2.64784502 1.5,2.46354167 L1.5,2.13020833 C1.5,1.94590498 1.7640625,1.796875 2.090625,1.796875 Z M2.090625,7 L9.771875,7 C10.0984375,7 10.3625,7.14902998 10.3625,7.33333333 L10.3625,7.66666667 C10.3625,7.85097002 10.0984375,8 9.771875,8 L2.090625,8 C1.7640625,8 1.5,7.85097002 1.5,7.66666667 L1.5,7.33333333 C1.5,7.14902998 1.7640625,7 2.090625,7 Z M2.090625,12 L13.909375,12 C14.2359375,12 14.5,12.14903 14.5,12.3333333 L14.5,12.6666667 C14.5,12.85097 14.2359375,13 13.909375,13 L2.090625,13 C1.7640625,13 1.5,12.85097 1.5,12.6666667 L1.5,12.3333333 C1.5,12.14903 1.7640625,12 2.090625,12 Z M11.5,8.95612625 L11.5,6.18425125 C11.5,5.84050125 11.95625,5.66706375 12.221875,5.91081375 L13.7390625,7.29675125 C13.9046875,7.44831375 13.9046875,7.69206375 13.7390625,7.84362625 L12.221875,9.22800125 C11.95625,9.47175125 11.5,9.29987625 11.5,8.95612625 Z" id="形状" fill="#FFFFFF" fill-rule="nonzero"></path>
        </g>
    </g>
</svg>