<?xml version="1.0" standalone="no"?><!DOCTYPE svg PUBLIC "-//W3C//DTD SVG 1.1//EN" "http://www.w3.org/Graphics/SVG/1.1/DTD/svg11.dtd"><svg t="1566542252332" class="icon" viewBox="0 0 1024 1024" version="1.1" xmlns="http://www.w3.org/2000/svg" p-id="8330" xmlns:xlink="http://www.w3.org/1999/xlink" width="100%" height="100%"><defs><style type="text/css"></style></defs><path d="M512 512m-512 0a512 512 0 1 0 1024 0 512 512 0 1 0-1024 0Z" fill="#cdcdcd" fill-opacity=".4" p-id="8331"></path><path d="M512 512m-307.2 0a307.2 307.2 0 1 0 614.4 0 307.2 307.2 0 1 0-614.4 0Z" fill="#fff" p-id="8332"></path><path d="M512 839.68c-180.98176 0-327.68-146.69824-327.68-327.68S331.01824 184.32 512 184.32s327.68 146.69824 327.68 327.68-146.69824 327.68-327.68 327.68z m0-40.96c158.35136 0 286.72-128.36864 286.72-286.72s-128.36864-286.72-286.72-286.72-286.72 128.36864-286.72 286.72 128.36864 286.72 286.72 286.72z" fill="#aaa" p-id="8333"></path></svg>